<svg width="32" height="25" viewBox="0 0 32 25" fill="none" xmlns="http://www.w3.org/2000/svg">
<path d="M15.4805 1.58398L16.5645 0.5C17.0234 0.0410156 17.7656 0.0410156 18.2197 0.5L30.0957 10.8315C30.5547 11.2905 30.5547 12.0327 30.0957 12.4868L18.2197 23.5C17.7607 23.959 17.0186 23.959 16.5645 23.5L15.4805 22.521C15.0166 22.0571 15.0264 21.1953 15.5 20.7412L23 13.6147H3.00005C2.35064 13.6147 2 13.1362 2 12.4868V10.8315C2 10.1821 2.35061 9.7085 3.00003 9.7085H23L15.5 3.25879C15.0215 2.80469 15.0117 2.04785 15.4805 1.58398Z" fill="black" fill-opacity="0.25"/>
</svg>
