<svg width="30" height="23" viewBox="0 0 30 23" fill="none" xmlns="http://www.w3.org/2000/svg">
<path d="M2.13516 0.447309C1.65768 0.523705 1.23011 0.78665 0.946503 1.1783C0.662895 1.56995 0.546485 2.05822 0.622882 2.53569C0.699278 3.01317 0.962223 3.44074 1.35387 3.72435C1.74552 4.00796 2.23379 4.12437 2.71127 4.04797H8.11226L8.43632 4.94814L9.91259 9.44897L11.3889 13.9498C11.5329 14.4179 12.145 14.85 12.6131 14.85H25.2154C25.7195 14.85 26.2956 14.4179 26.4396 13.9498L29.3562 4.94814C29.5002 4.48005 29.2842 4.04797 28.7801 4.04797H12.7931L11.4249 1.45549C11.2791 1.15793 11.0541 0.906359 10.7746 0.728476C10.4951 0.550592 10.1719 0.453298 9.84058 0.447309L2.63925 0.447309C2.53145 0.437567 2.42299 0.437567 2.31519 0.447309C2.24325 0.442984 2.1711 0.442984 2.09915 0.447309L2.13516 0.447309ZM13.5133 18.4506C12.5051 18.4506 11.7129 19.2428 11.7129 20.251C11.7129 21.2591 12.5051 22.0513 13.5133 22.0513C14.5214 22.0513 15.3136 21.2591 15.3136 20.251C15.3136 19.2428 14.5214 18.4506 13.5133 18.4506ZM24.3152 18.4506C23.3071 18.4506 22.5149 19.2428 22.5149 20.251C22.5149 21.2591 23.3071 22.0513 24.3152 22.0513C25.3234 22.0513 26.1156 21.2591 26.1156 20.251C26.1156 19.2428 25.3234 18.4506 24.3152 18.4506Z" fill="white"/>
</svg>
