<svg width="25" height="25" viewBox="0 0 25 25" fill="none" xmlns="http://www.w3.org/2000/svg">
<rect width="25" height="25" fill="#EEE1E1"/>
<g id="button login social">
<rect x="-44.5" y="-24.5" width="254" height="129" rx="4.5" stroke="#9747FF" stroke-dasharray="10 5"/>
<g id="Property 1=fb def" filter="url(#filter0_d_0_1)">
<rect x="-25" y="-5" width="75" height="35" rx="8" fill="#1877F2" shape-rendering="crispEdges"/>
<rect x="-25.25" y="-5.25" width="75.5" height="35.5" rx="8.25" stroke="black" stroke-opacity="0.5" stroke-width="0.5" stroke-linejoin="round" shape-rendering="crispEdges"/>
<g id="facebook-f">
<rect width="25" height="25" rx="12.5" fill="white"/>
<path id="Vector" d="M17.0098 16.25L17.5652 12.6305H14.0922V10.2816C14.0922 9.29141 14.5773 8.32617 16.1328 8.32617H17.7117V5.24453C17.7117 5.24453 16.2789 5 14.909 5C12.0488 5 10.1793 6.73359 10.1793 9.87187V12.6305H7V16.25H10.1793V25H14.0922V16.25H17.0098Z" fill="#1877F2"/>
</g>
</g>
</g>
<defs>
<filter id="filter0_d_0_1" x="-27.5" y="-5.5" width="84" height="44" filterUnits="userSpaceOnUse" color-interpolation-filters="sRGB">
<feFlood flood-opacity="0" result="BackgroundImageFix"/>
<feColorMatrix in="SourceAlpha" type="matrix" values="0 0 0 0 0 0 0 0 0 0 0 0 0 0 0 0 0 0 127 0" result="hardAlpha"/>
<feOffset dx="2" dy="4"/>
<feGaussianBlur stdDeviation="2"/>
<feComposite in2="hardAlpha" operator="out"/>
<feColorMatrix type="matrix" values="0 0 0 0 0 0 0 0 0 0 0 0 0 0 0 0 0 0 0.25 0"/>
<feBlend mode="normal" in2="BackgroundImageFix" result="effect1_dropShadow_0_1"/>
<feBlend mode="normal" in="SourceGraphic" in2="effect1_dropShadow_0_1" result="shape"/>
</filter>
</defs>
</svg>
